<svg width="48" height="48" viewBox="0 0 48 48" fill="none" xmlns="http://www.w3.org/2000/svg">
<path fill-rule="evenodd" clip-rule="evenodd" d="M24.5 16C23.3543 16 22.2075 16.2643 21.1472 16.7944L21.1348 16.8006L21.1348 16.8006C18.5951 18.0266 17 20.6672 17 23.5C17 24.6458 17.2643 25.7925 17.7945 26.8528C17.9131 27.09 17.9326 27.3646 17.8487 27.6162L16.5812 31.4189L20.3838 30.1513C20.6354 30.0674 20.91 30.087 21.1472 30.2056C22.2075 30.7357 23.3543 31 24.5 31C27.3328 31 29.9734 29.405 31.1995 26.8653L31.2055 26.8527L31.2056 26.8528C31.7357 25.7925 32 24.6458 32 23.5V23.024C31.8132 19.2575 28.7425 16.1868 24.976 16H24.5ZM20.259 15.0025C21.5971 14.3347 23.048 14 24.5 14H25C25.0155 14 25.031 14.0004 25.0465 14.0011C29.8623 14.2251 33.775 18.1378 33.9989 22.9535C33.9997 22.969 34 22.9845 34 23V23.5C34 24.952 33.6654 26.403 32.9976 27.741C31.4223 30.9976 28.0649 33 24.5 33C23.1833 33 21.8674 32.7248 20.6358 32.1755L15.3163 33.9487C14.9569 34.0685 14.5608 33.9749 14.2929 33.7071C14.0251 33.4393 13.9316 33.0431 14.0513 32.6838L15.8245 27.3642C15.2752 26.1326 15 24.8167 15 23.5C15 19.9351 17.0024 16.5777 20.259 15.0025Z" fill="#484848"/>
</svg>
