<svg width="48" height="48" viewBox="0 0 48 48" fill="none" xmlns="http://www.w3.org/2000/svg">
<path d="M24 17.5C24.715 17.5 25.3 18.085 25.3 18.8V24C25.3 24.715 24.715 25.3 24 25.3C23.285 25.3 22.7 24.715 22.7 24V18.8C22.7 18.085 23.285 17.5 24 17.5ZM23.987 11C16.811 11 11 16.824 11 24C11 31.176 16.811 37 23.987 37C31.176 37 37 31.176 37 24C37 16.824 31.176 11 23.987 11ZM24 34.4C18.254 34.4 13.6 29.746 13.6 24C13.6 18.254 18.254 13.6 24 13.6C29.746 13.6 34.4 18.254 34.4 24C34.4 29.746 29.746 34.4 24 34.4ZM25.3 29.5C25.3 30.0523 24.8523 30.5 24.3 30.5H23.7C23.1477 30.5 22.7 30.0523 22.7 29.5V28.9C22.7 28.3477 23.1477 27.9 23.7 27.9H24.3C24.8523 27.9 25.3 28.3477 25.3 28.9V29.5Z" fill="#FFCD00"/>
</svg>
