<svg width="48" height="48" viewBox="0 0 48 48" fill="none" xmlns="http://www.w3.org/2000/svg">
<path fill-rule="evenodd" clip-rule="evenodd" d="M18.5 30C17.6523 30 17 30.6523 17 31.5C17 32.0523 16.5523 32.5 16 32.5C15.4477 32.5 15 32.0523 15 31.5C15 29.5477 16.5477 28 18.5 28H32C32.5523 28 33 28.4477 33 29C33 29.5523 32.5523 30 32 30H18.5Z" fill="#484848"/>
<path fill-rule="evenodd" clip-rule="evenodd" d="M18.5 15C17.6523 15 17 15.6523 17 16.5V31.5C17 32.3477 17.6523 33 18.5 33H31V15H18.5ZM15 16.5C15 14.5477 16.5477 13 18.5 13H32C32.5523 13 33 13.4477 33 14V34C33 34.5523 32.5523 35 32 35H18.5C16.5477 35 15 33.4523 15 31.5V16.5Z" fill="#484848"/>
</svg>
