<svg width="60" height="80" viewBox="0 0 60 80" fill="none" xmlns="http://www.w3.org/2000/svg">
<path fill-rule="evenodd" clip-rule="evenodd" d="M54.9647 49.2576C58.1916 47.1914 60 43.8678 60 40.0002C60 36.1326 58.1916 32.8091 54.9647 30.7428L8.30574 0.866207C6.35482 -0.382488 3.96233 -0.274236 2.12954 1.14633C0.297677 2.56785 -0.429817 4.87912 0.25174 7.11158L9.30229 36.766C9.97354 38.9652 9.97447 41.0353 9.30229 43.2345L0.25174 72.8879C-0.429817 75.1204 0.297677 77.4326 2.13047 78.8531C3.96233 80.2737 6.35482 80.3829 8.30574 79.1342L54.9647 49.2576Z" fill="#FF1A3A"/>
<path fill-rule="evenodd" clip-rule="evenodd" d="M8.30572 79.1342L11.211 77.274C16.4469 73.922 18.7316 67.651 16.9016 61.6582L9.33696 36.8771L9.36321 36.9701V36.9711L9.39228 37.0708V37.0736L9.41946 37.1724L9.4204 37.1762L9.44665 37.273L9.44759 37.2787L9.47196 37.3727L9.47384 37.3813L9.49727 37.4734L9.49915 37.4829L9.52071 37.5731L9.52259 37.5845L9.54321 37.6747L9.54602 37.687L9.56571 37.7735L9.56852 37.7877L9.58915 37.8893L9.60602 37.9738L9.60977 37.9909L9.62477 38.0735L9.62852 38.0916L9.64352 38.1723L9.64634 38.1932L9.6604 38.2729L9.66415 38.2938L9.67634 38.3717L9.68009 38.3954L9.69509 38.4961L9.70634 38.5702L9.71008 38.5967L9.7354 38.7971L9.7429 38.8674L9.74665 38.8987L9.75415 38.9652L9.75696 38.9984L9.76352 39.0649L9.76634 39.0991L9.77196 39.1627L9.77477 39.1988L9.77946 39.2624L9.78227 39.2994L9.78883 39.3991L9.79165 39.4599L9.79352 39.4998L9.79634 39.5577L9.79821 39.5995L9.80102 39.6565L9.80196 39.7002L9.80383 39.7543L9.80477 39.7999L9.80571 39.854V39.9005L9.80665 39.9518V40.0002V40.0505L9.80571 40.1009V40.1484L9.80477 40.2006L9.80383 40.2471L9.80196 40.3003L9.79821 40.4009L9.79634 40.4446L9.79352 40.5006L9.79165 40.5424L9.78883 40.6013L9.78696 40.6421L9.78227 40.701L9.77946 40.7399L9.77477 40.8017L9.77196 40.8387L9.76634 40.9014L9.76352 40.9375L9.75696 41.002L9.75321 41.0362L9.74665 41.1017L9.7429 41.135L9.7354 41.2033L9.73165 41.2347L9.72321 41.303L9.71946 41.3325L9.71008 41.4046L9.70634 41.4322L9.69602 41.5044L9.69227 41.5309L9.68102 41.606L9.67634 41.6306L9.66415 41.7066L9.6604 41.7294L9.64727 41.8073L9.64352 41.8301L9.62852 41.9089L9.62477 41.9288L9.60977 42.0095L9.60602 42.0295L9.59009 42.1111L9.58634 42.1282L9.56852 42.2118L9.56477 42.2279L9.54602 42.3143L9.54321 42.3276L9.52259 42.4159L9.51977 42.4292L9.49915 42.5176L9.49634 42.5289L9.47384 42.6192L9.47196 42.6296L9.44759 42.7217L9.44571 42.7293L9.4204 42.8243L9.41946 42.8309L9.39321 42.9268L9.39134 42.9316L9.36321 43.0294V43.0322L9.33415 43.1319L9.33321 43.1338L9.30228 43.2345L8.02729 47.4155L6.24136 53.2639L0.251726 72.8879C-0.429831 75.1204 0.297663 77.4326 2.13046 78.8531C3.96232 80.2737 6.3548 80.3829 8.30572 79.1342Z" fill="#C30000"/>
</svg>
