<svg width="48" height="48" viewBox="0 0 48 48" fill="none" xmlns="http://www.w3.org/2000/svg">
<path fill-rule="evenodd" clip-rule="evenodd" d="M17 16C16.4523 16 16 16.4523 16 17V31C16 31.5477 16.4523 32 17 32H21C21.5523 32 22 32.4477 22 33C22 33.5523 21.5523 34 21 34H17C15.3477 34 14 32.6523 14 31V17C14 15.3477 15.3477 14 17 14H21C21.5523 14 22 14.4477 22 15C22 15.5523 21.5523 16 21 16H17Z" fill="#484848"/>
<path fill-rule="evenodd" clip-rule="evenodd" d="M29.8303 22.9877H19.6225C19.0579 22.9877 18.6001 23.4455 18.6001 24.0102C18.6001 24.5749 19.0579 25.0326 19.6225 25.0326H29.8303C30.395 25.0326 30.8527 24.5749 30.8527 24.0102C30.8527 23.4455 30.395 22.9877 29.8303 22.9877ZM36.5378 22.9948L30.2407 16.8904C30.0486 16.7042 29.7914 16.6 29.5238 16.6C28.5983 16.6 28.1423 17.7255 28.8068 18.3697L34.1705 23.5692C34.4136 23.8049 34.4136 24.1951 34.1705 24.4308L28.8068 29.6303C28.1423 30.2744 28.5983 31.4 29.5238 31.4C29.7914 31.4 30.0486 31.2958 30.2407 31.1095L36.5378 25.0052C37.1052 24.4552 37.1052 23.5448 36.5378 22.9948ZM19.0001 24.0102C19.0001 23.7194 19.1994 23.4753 19.4689 23.4068C19.1994 23.4753 19.0001 23.7195 19.0001 24.0102C19.0001 24.3539 19.2788 24.6326 19.6226 24.6326H29.8303C29.8303 24.6326 29.8303 24.6326 29.8303 24.6326H19.6225C19.2788 24.6326 19.0001 24.3539 19.0001 24.0102ZM29.3257 17.0303C28.8987 17.1675 28.7296 17.7377 29.0852 18.0825L34.4489 23.282C34.8542 23.6748 34.8542 24.3251 34.4489 24.718L34.4489 24.718C34.8542 24.3251 34.8542 23.6748 34.4489 23.282L29.0852 18.0825C28.7296 17.7377 28.8987 17.1675 29.3257 17.0303ZM29.0852 29.9175L29.0852 29.9175C28.6788 30.3115 28.9577 31 29.5238 31C29.5238 31 29.5238 31 29.5238 31C28.9577 31 28.6788 30.3115 29.0852 29.9175ZM29.9624 30.8223L36.2594 24.718L29.9624 30.8223Z" fill="#484848"/>
</svg>
