<svg width="291" height="211" viewBox="0 0 291 211" fill="none" xmlns="http://www.w3.org/2000/svg">
<g clip-path="url(#clip0)">
<path d="M124.588 197.33C179.079 197.33 223.253 153.156 223.253 98.6649C223.253 44.1738 179.079 0 124.588 0C70.0966 0 25.9229 44.1738 25.9229 98.6649C25.9229 153.156 70.0966 197.33 124.588 197.33Z" fill="#F2F2F2"/>
<path d="M39.1485 211C60.7696 211 78.297 208.196 78.297 204.736C78.297 201.277 60.7696 198.472 39.1485 198.472C17.5274 198.472 0 201.277 0 204.736C0 208.196 17.5274 211 39.1485 211Z" fill="#F2F2F2"/>
<path d="M230.13 204.633C263.584 204.633 290.704 200.294 290.704 194.941C290.704 189.588 263.584 185.249 230.13 185.249C196.675 185.249 169.555 189.588 169.555 194.941C169.555 200.294 196.675 204.633 230.13 204.633Z" fill="#F2F2F2"/>
<path d="M216.671 101.782C216.671 101.782 217.187 103.501 214.265 105.048C211.342 106.595 210.483 112.44 213.921 114.159C217.359 115.878 218.39 118.113 216.671 119.66C214.952 121.207 211.858 125.333 215.984 126.364C220.109 127.396 220.625 129.459 219.422 130.318C218.218 131.178 222.172 128.771 222.172 128.771C222.172 128.771 222.86 132.897 226.47 131.865C230.08 130.834 240.222 111.237 235.065 108.486C229.908 105.736 216.671 101.782 216.671 101.782Z" fill="#2F2E41"/>
<path d="M222.902 118.381C222.902 118.381 224.685 124.622 221.564 125.068C219.628 125.37 217.793 126.134 216.215 127.297L222.01 134.875H232.709L239.396 128.188C239.396 128.188 230.48 121.502 232.263 117.49C234.046 113.477 222.902 118.381 222.902 118.381Z" fill="#FFB9B9"/>
<path opacity="0.1" d="M222.902 118.381C222.902 118.381 224.685 124.622 221.564 125.068C219.628 125.37 217.793 126.134 216.215 127.297L222.01 134.875H232.709L239.396 128.188C239.396 128.188 230.48 121.502 232.263 117.49C234.046 113.477 222.902 118.381 222.902 118.381Z" fill="black"/>
<path d="M225.577 195.949L235.83 199.515L242.962 199.961L242.517 193.72L227.805 189.369L225.577 195.949Z" fill="#FFB9B9"/>
<path d="M238.728 194.611C238.728 194.611 238.728 200.852 239.619 200.852C240.511 200.852 252.547 199.515 256.113 200.852C259.68 202.19 265.029 197.286 262.354 194.611C259.68 191.936 255.317 187.924 252.595 188.816C249.872 189.707 238.728 191.936 238.728 191.936V194.611Z" fill="#575A89"/>
<path d="M205.962 188.816C205.962 188.816 200.613 199.515 204.179 200.406C207.745 201.298 211.757 199.961 212.203 199.515C212.649 199.069 218.89 197.286 219.782 198.177C220.673 199.069 220.673 194.611 220.673 194.611L205.962 188.816Z" fill="#575A89"/>
<path d="M210.42 174.105C210.42 174.105 201.95 185.695 208.191 188.816C214.432 191.936 244.3 191.936 246.529 188.816C248.758 185.695 249.649 175.888 246.529 174.996C243.408 174.105 210.42 174.105 210.42 174.105Z" fill="#2F2E41"/>
<path opacity="0.2" d="M210.42 174.105C210.42 174.105 201.95 185.695 208.191 188.816C214.432 191.936 244.3 191.936 246.529 188.816C248.758 185.695 249.649 175.888 246.529 174.996C243.408 174.105 210.42 174.105 210.42 174.105Z" fill="black"/>
<path d="M226.468 121.502C232.131 121.502 236.721 116.911 236.721 111.248C236.721 105.586 232.131 100.995 226.468 100.995C220.805 100.995 216.215 105.586 216.215 111.248C216.215 116.911 220.805 121.502 226.468 121.502Z" fill="#FFB9B9"/>
<path d="M210.42 127.297L219.336 125.514C219.336 125.514 221.565 132.646 228.697 131.309C235.83 129.972 237.613 125.514 237.613 125.514C237.613 125.514 242.963 127.743 243.408 127.743C243.854 127.743 249.649 129.972 249.649 131.309C249.649 132.646 242.963 146.02 242.963 146.02L243.854 170.093L210.866 169.201L213.095 145.574L210.42 127.297Z" fill="#FF1A3A"/>
<path d="M205.516 138.887C205.516 138.887 202.842 162.514 204.625 164.297C206.408 166.081 213.54 170.984 213.54 170.984V165.635L209.974 158.948L213.54 143.345L205.516 138.887Z" fill="#FFB9B9"/>
<path d="M251.655 138.219C251.655 138.219 250.095 162.514 250.095 163.406C250.095 164.297 246.083 167.418 244.746 167.418C243.408 167.418 242.517 165.189 242.517 165.189L245.637 161.623L243.408 143.345L251.655 138.219Z" fill="#FFB9B9"/>
<path d="M247.42 172.322C247.42 172.322 267.481 161.177 267.927 172.322C268.372 183.466 257.673 187.924 257.673 187.924C257.673 187.924 230.034 196.212 228.92 193.183C227.806 190.153 225.577 185.25 227.36 184.804C229.143 184.358 231.372 183.466 232.263 184.358C233.155 185.25 244.3 177.671 244.3 177.671L247.42 172.322Z" fill="#2F2E41"/>
<path opacity="0.2" d="M256.782 170.984C256.782 170.984 252.77 172.767 251.432 174.105C250.095 175.442 244.3 177.671 244.3 177.671" stroke="black" stroke-width="2" stroke-miterlimit="10"/>
<path d="M213.095 128.188L210.42 127.297C210.42 127.297 200.613 137.55 203.733 140.225C206.854 142.9 208.637 143.791 209.528 144.683C210.42 145.574 214.878 146.02 214.878 146.02L213.095 128.188Z" fill="#FF1A3A"/>
<path d="M245.637 130.417L249.649 131.309C249.649 131.309 252.77 137.996 253.661 138.887C254.553 139.779 252.324 139.333 250.986 141.116C249.649 142.899 248.312 146.02 245.637 146.02C242.962 146.02 239.396 141.562 239.396 141.562L245.637 130.417Z" fill="#FF1A3A"/>
<path d="M211.311 176.334C211.311 176.334 194.371 164.297 188.576 173.213C182.781 182.129 213.54 194.165 217.998 195.949C222.456 197.732 226.468 199.515 226.468 199.515C226.468 199.515 230.48 189.707 230.48 187.924C230.48 186.141 227.36 186.141 226.468 186.141C225.577 186.141 221.565 185.25 220.673 183.912C219.781 182.575 211.311 176.334 211.311 176.334Z" fill="#2F2E41"/>
<path opacity="0.2" d="M201.95 173.213C201.95 173.213 206.408 176.78 210.42 177.671C214.432 178.563 215.769 180.792 215.769 180.792" stroke="black" stroke-width="2" stroke-miterlimit="10"/>
<path d="M208.236 156.452L208.592 175.327C208.604 175.95 208.862 176.544 209.309 176.978C209.757 177.412 210.358 177.652 210.981 177.645L246.107 177.25C246.705 177.243 247.279 177.01 247.712 176.597C248.144 176.183 248.404 175.621 248.439 175.024L249.505 156.543C249.524 156.222 249.476 155.9 249.366 155.598C249.256 155.296 249.085 155.019 248.864 154.785C248.644 154.551 248.377 154.365 248.082 154.237C247.786 154.11 247.468 154.044 247.146 154.044H210.599C210.285 154.044 209.974 154.107 209.684 154.228C209.395 154.35 209.132 154.528 208.912 154.752C208.692 154.976 208.519 155.242 208.403 155.534C208.287 155.826 208.23 156.138 208.236 156.452V156.452Z" fill="#575A89"/>
<path d="M227.016 98.3685C227.016 98.3685 227.587 100.273 224.35 101.987C221.112 103.701 220.16 110.175 223.969 112.08C227.778 113.984 228.92 116.46 227.016 118.174C225.111 119.888 221.684 124.458 226.254 125.601C230.825 126.743 231.396 129.029 230.063 129.981C228.73 130.933 233.11 128.267 233.11 128.267C233.11 128.267 233.872 132.837 237.871 131.695C241.87 130.552 245.86 109.782 241.402 104.433C237.257 99.4585 227.016 98.3685 227.016 98.3685Z" fill="#2F2E41"/>
<path d="M225.799 96.4084C225.8 93.6184 234.147 95.6231 237.726 99.5185C240.204 102.216 243.968 106.274 240.814 109.135C237.66 111.996 246.22 115.746 248.516 116.883C250.812 118.02 255.345 121.497 251.252 123.829C247.159 126.162 247.225 128.517 248.766 129.074C250.306 129.632 245.369 128.245 245.369 128.245C245.369 128.245 245.868 132.852 241.709 132.83C237.55 132.808 225.618 109.95 228.468 103.597C231.119 97.6897 225.799 96.4084 225.799 96.4084Z" fill="#2F2E41"/>
<path d="M227.607 95.797C216.445 95.1248 215.325 103.527 215.325 103.527C215.402 108.389 223.124 106.02 225.269 106.745C227.856 104.884 232.843 101.362 236.41 98.8487C233.82 97.0253 230.77 95.9678 227.607 95.797Z" fill="#2F2E41"/>
<path d="M224.428 149.412C224.428 149.412 214.415 102.487 151.746 68.4465" stroke="#3F3D56" stroke-width="2" stroke-miterlimit="10"/>
<path d="M154.327 67.423L154.453 67.9374L151.918 68.5522L152.717 71.0357L152.212 71.1974L151.24 68.1723L154.327 67.423Z" fill="#3F3D56"/>
<path d="M18.1122 197.359C18.1122 203.302 14.5792 205.378 10.2207 205.378C10.1197 205.378 10.0189 205.377 9.91824 205.374C9.7163 205.37 9.51628 205.36 9.31866 205.347C5.38515 205.069 2.3291 202.887 2.3291 197.359C2.3291 191.639 9.63889 184.421 10.188 183.887L10.1889 183.886C10.2101 183.865 10.2207 183.855 10.2207 183.855C10.2207 183.855 18.1122 191.416 18.1122 197.359Z" fill="#FF1A3A"/>
<path d="M9.93315 204.468L12.8195 200.435L9.92594 204.911L9.91825 205.374C9.71631 205.37 9.51629 205.36 9.31867 205.347L9.62976 199.401L9.62736 199.354L9.63265 199.346L9.66198 198.784L6.76123 194.297L9.6711 198.363L9.67784 198.482L9.91296 193.99L7.42957 189.353L9.94325 193.201L10.188 183.887L10.1889 183.855V183.886L10.1481 191.231L12.6204 188.319L10.138 191.863L10.0726 195.886L12.381 192.025L10.063 196.478L10.0264 198.714L13.3777 193.341L10.0139 199.494L9.93315 204.468Z" fill="#3F3D56"/>
<path d="M55.7532 195.819L57.4413 194.565C57.4413 194.565 58.5587 200.807 57.3118 201.742C56.0649 202.677 51.389 204.236 51.389 206.106C51.389 207.977 40.7905 210.47 40.4787 207.665C40.167 204.859 41.4139 203.301 41.4139 203.301C41.4139 203.301 46.4015 198.313 47.0249 197.378C47.6484 196.443 49.207 194.572 49.207 194.572L55.7532 195.819Z" fill="#2F2E41"/>
<path d="M30.8154 118.2C30.8154 118.2 30.8622 118.475 30.9432 118.977C31.0181 119.422 31.1209 120.052 31.2456 120.828C32.5549 128.818 36.3735 152.337 36.1147 153.113C35.803 154.049 33.6209 157.477 36.1147 158.413C36.3548 158.503 36.6135 158.796 36.8909 159.257C37.4264 160.251 37.8678 161.293 38.2095 162.368C39.6964 166.683 41.2862 173.587 42.2058 178.369C42.6079 180.47 42.8822 182.16 42.9633 183.045C42.9914 183.25 42.9946 183.457 42.9726 183.662C42.6609 184.909 44.843 189.273 45.7781 190.52C46.7133 191.767 48.2719 193.014 47.9602 194.261C47.6485 195.508 55.7533 198.937 56.6884 196.755C57.6236 194.573 57.6236 193.326 57.9353 192.702C58.247 192.079 58.5588 187.715 57.0002 187.091C55.4415 186.468 56.3767 175.557 54.8181 173.375C54.2975 172.649 53.5026 170.19 52.6703 167.231C52.343 166.072 52.0126 164.837 51.6884 163.6C50.3729 158.528 49.2071 153.425 49.2071 153.425L49.5188 116.953L32.374 114.771L31.9345 115.741L31.0586 117.664L30.8154 118.2Z" fill="#2F2E41"/>
<path d="M29.88 178.051C29.88 178.051 27.3862 175.557 26.1393 178.051C24.8924 180.545 23.6455 190.208 21.4635 192.39C19.2814 194.572 16.4759 205.483 19.5932 206.106C22.7104 206.73 26.1393 205.171 26.4511 203.301C26.7628 201.43 33.3089 191.767 33.3089 190.832C33.3089 189.897 28.9448 186.468 28.9448 186.468L29.88 178.051Z" fill="#2F2E41"/>
<path d="M68.2222 101.056C68.2222 101.056 64.1698 137.527 63.2347 140.956C62.2995 144.385 57.3119 157.477 55.7533 159.66C54.1947 161.842 44.2196 179.61 42.9727 180.545C41.7258 181.48 39.232 183.974 39.232 183.974C39.232 183.974 34.5561 188.65 33.9327 189.585C33.3093 190.52 28.01 187.715 27.6982 185.844C27.3865 183.974 28.01 180.857 28.3217 179.61C28.6334 178.363 27.6982 176.493 28.6334 175.557C29.5686 174.622 34.2444 169.946 34.2444 167.764C34.2444 165.582 42.3492 152.802 45.4664 149.996C48.5837 147.191 47.9602 142.515 47.9602 142.515V123.5L30.8155 118.2C30.8155 118.2 31.7506 103.238 33.9327 103.238C36.1148 103.238 64.7933 98.2502 68.2222 101.056Z" fill="#2F2E41"/>
<path d="M42.9724 48.9979C48.6537 48.9979 53.2593 44.3923 53.2593 38.7111C53.2593 33.0298 48.6537 28.4242 42.9724 28.4242C37.2911 28.4242 32.6855 33.0298 32.6855 38.7111C32.6855 44.3923 37.2911 48.9979 42.9724 48.9979Z" fill="#9F616A"/>
<path d="M46.4014 46.8158C46.4014 46.8158 47.6483 51.4917 49.2069 52.7386C50.7655 53.9855 45.1545 59.2847 45.1545 59.2847L34.5559 59.9082L32.6855 53.9855C32.6855 53.9855 36.1145 47.1275 35.1793 42.7634C34.2442 38.3993 46.4014 46.8158 46.4014 46.8158Z" fill="#9F616A"/>
<path d="M50.7657 52.1151C50.7657 52.1151 47.9602 52.4268 47.3367 53.362C46.7133 54.2972 42.3492 57.1027 38.9202 56.4792C35.4913 55.8558 33.3092 54.9206 32.6858 55.2323C32.0623 55.544 30.8154 62.0902 30.8154 62.0902L34.2444 72.0654L33.6209 99.497L32.6858 106.978C32.6858 106.978 30.8154 104.485 38.2968 106.043C45.7781 107.602 55.4415 104.796 58.5588 104.485C61.676 104.173 66.9753 103.238 67.287 101.367C67.5988 99.497 66.3519 92.6391 66.3519 92.6391L61.3643 71.7536L58.2471 60.5316L50.7657 52.1151Z" fill="#FF1A3A"/>
<path d="M47.8169 50.7082C47.8169 50.7082 50.4537 49.3096 51.3889 50.5565C52.3241 51.8034 64.1695 53.6737 64.1695 54.6089C64.1695 55.544 66.6633 80.7936 66.0399 82.9757C65.4164 85.1578 67.2868 87.6515 67.2868 87.6515L69.4688 97.0032C69.4688 97.0032 75.3916 114.771 72.8978 115.395C70.404 116.018 68.2219 115.395 67.2868 115.395C66.3516 115.395 66.6633 103.549 64.1695 100.432C61.6758 97.3149 58.2468 89.5219 57.6234 87.9633C56.9999 86.4046 49.2068 64.8958 49.5186 62.402C49.8303 59.9082 47.8169 50.7082 47.8169 50.7082Z" fill="#D0CDE1"/>
<path d="M34.8678 52.1151C34.8678 52.1151 32.374 52.1151 32.0622 52.7385C31.7505 53.362 28.6333 57.4144 27.3864 58.3495C26.1395 59.2847 21.7754 63.3371 21.7754 64.2723C21.7754 65.2074 30.8154 72.0653 30.8154 72.0653C30.8154 72.0653 34.556 90.457 32.6857 96.6914C30.8154 102.926 28.0099 117.889 29.2567 118.824C30.5036 119.759 33.3091 120.071 33.3091 118.824C33.3091 117.577 35.1795 104.173 36.7381 101.367C38.2967 98.5618 42.9726 80.7936 41.1022 75.806C39.2319 70.8185 34.8678 52.1151 34.8678 52.1151Z" fill="#D0CDE1"/>
<path d="M76.0151 82.9757C76.0151 82.9757 76.3269 92.6391 72.8979 97.6267C69.469 102.614 67.2869 108.225 67.2869 108.225C67.2869 108.225 61.6759 106.667 60.7407 104.796C59.8056 102.926 53.8828 104.485 53.8828 103.861C53.8828 103.238 61.0524 100.12 61.6759 99.497C62.2993 98.8736 64.4814 98.8736 65.7283 97.6267C66.9752 96.3798 67.2869 93.5743 67.2869 93.5743L68.5338 85.4695L76.0151 82.9757Z" fill="#9F616A"/>
<path d="M50.0575 32.3684C50.8489 32.2965 51.6651 32.2174 52.3645 31.8402C53.9316 30.9951 54.3472 28.5883 53.1542 27.2665C52.8253 26.9302 52.4574 26.6344 52.0583 26.3853L49.6888 24.7725C48.6408 24.0592 47.568 23.3342 46.3458 22.9979C45.2402 22.6938 44.0726 22.7251 42.9282 22.7962C40.7066 22.9343 38.4713 23.2195 36.3818 23.9865C34.2922 24.7535 32.3431 26.0368 31.0775 27.8679C29.0713 30.7707 29.0437 34.6858 30.1487 38.037C31.2537 41.3882 33.3526 44.3064 35.4208 47.1654L36.4939 41.9294C36.5895 41.463 36.7131 40.9519 37.101 40.6759C38.0651 39.9898 39.2443 41.3984 40.4275 41.3892C41.1877 41.3834 41.826 40.7581 42.1141 40.0545C42.4022 39.351 42.4212 38.5718 42.4878 37.8145C42.629 36.2104 43.1897 33.9784 44.7088 33.0938C46.1243 32.2694 48.4664 32.5129 50.0575 32.3684Z" fill="#2F2E41"/>
<path opacity="0.1" d="M49.4807 118.452C49.4807 118.452 48.4279 148.905 47.8044 149.84C47.181 150.775 47.8044 118.356 47.8044 118.356L49.4807 118.452Z" fill="black"/>
<path d="M61.6758 54.6089H64.1696C64.1696 54.6089 74.7681 68.9482 73.5213 69.8834C72.2744 70.8185 73.5213 73.3123 73.5213 73.3123L76.015 77.9882C76.015 77.9882 79.1323 80.7937 78.1971 81.4171C77.2619 82.0406 76.015 84.5343 76.015 84.5343C76.015 84.5343 69.7806 83.5992 67.9102 87.3398L63.8672 82.2358L61.6758 54.6089Z" fill="#D0CDE1"/>
<path d="M62.5572 59.2211L54 62.7547L60.5851 78.7014L69.1423 75.1677L62.5572 59.2211Z" fill="#2F2E41"/>
<path d="M61.5543 68.5739C62.4995 68.1836 62.9751 67.1632 62.6165 66.2949C62.258 65.4266 61.2011 65.0391 60.2559 65.4295C59.3107 65.8198 58.8351 66.8401 59.1937 67.7084C59.5522 68.5767 60.6091 68.9642 61.5543 68.5739Z" fill="#FF1A3A"/>
<path d="M55.4414 79.5467C55.4414 79.5467 32.9973 98.2501 29.2567 92.3273C25.516 86.4046 33.3091 81.417 33.3091 81.417C33.3091 81.417 40.167 81.7288 47.96 76.7412L55.7531 73.3122C55.7531 73.3122 62.8676 63.1551 65.292 67.0228C67.7164 70.8906 61.1536 77.6221 55.4414 79.5467Z" fill="#9F616A"/>
<path d="M25.2042 63.0254L21.7752 64.2723V73.624L20.5283 75.4943C20.5283 75.4943 20.84 79.235 21.7752 80.1702C22.7104 81.1053 24.5807 80.7936 23.9573 82.9757C23.5826 84.3983 23.4769 85.8784 23.6455 87.3398C23.6455 87.3398 29.2566 94.5094 29.5683 93.5742C29.88 92.6391 34.2441 81.1053 34.8676 81.1053C35.491 81.1053 28.6331 63.0254 28.6331 63.0254H25.2042Z" fill="#D0CDE1"/>
<path d="M66.1959 110.251C66.1959 110.251 69.4191 107.134 67.8075 106.978C66.1959 106.823 60.5849 103.705 59.6497 105.264C58.7146 106.823 66.1959 110.251 66.1959 110.251Z" fill="#2F2E41"/>
<path d="M127.497 50.7874C129.981 50.7874 131.994 49.7215 131.994 48.4067C131.994 47.0919 129.981 46.0261 127.497 46.0261C125.014 46.0261 123 47.0919 123 48.4067C123 49.7215 125.014 50.7874 127.497 50.7874Z" fill="#57B894"/>
<path d="M144.691 56.3422C134.551 52.5126 124.411 52.5126 114.271 56.3422V43.9099C124.19 40.9168 134.772 40.9168 144.691 43.9099V56.3422Z" stroke="#3F3D56" stroke-width="2" stroke-miterlimit="10"/>
<path d="M140.458 53.7711C133.14 51.0072 125.822 51.0072 118.503 53.7711V44.7983C125.662 42.638 133.299 42.638 140.458 44.7983V53.7711Z" stroke="#3F3D56" stroke-width="2" stroke-miterlimit="10"/>
<path d="M129.084 49.7293C131.568 49.7293 133.581 48.6635 133.581 47.3487C133.581 46.0339 131.568 44.968 129.084 44.968C126.601 44.968 124.587 46.0339 124.587 47.3487C124.587 48.6635 126.601 49.7293 129.084 49.7293Z" stroke="#3F3D56" stroke-width="2" stroke-miterlimit="10"/>
<path d="M130.804 65.6964C133.237 65.1998 134.997 63.7529 134.734 62.4646C134.471 61.1764 132.285 60.5347 129.852 61.0313C127.418 61.528 125.659 62.9749 125.922 64.2631C126.185 65.5514 128.371 66.1931 130.804 65.6964Z" fill="#57B894"/>
<path d="M148.761 67.7008C138.06 65.9763 128.125 68.004 118.956 73.784L116.47 61.6028C125.59 56.6866 135.958 54.5706 146.275 55.5197L148.761 67.7008Z" stroke="#3F3D56" stroke-width="2" stroke-miterlimit="10"/>
<path d="M144.1 66.028C136.377 64.7834 129.206 66.2468 122.588 70.4185L120.794 61.6268C127.376 58.0786 134.859 56.5514 142.305 57.2364L144.1 66.028Z" stroke="#3F3D56" stroke-width="2" stroke-miterlimit="10"/>
<path d="M132.147 64.3424C134.581 63.8458 136.34 62.3988 136.077 61.1106C135.814 59.8223 133.628 59.1806 131.195 59.6773C128.762 60.1739 127.002 61.6208 127.265 62.9091C127.528 64.1973 129.714 64.839 132.147 64.3424Z" stroke="#3F3D56" stroke-width="2" stroke-miterlimit="10"/>
<path d="M133.881 78.473C133.973 77.1614 132.038 75.9584 129.561 75.786C127.083 75.6136 125.001 76.5371 124.909 77.8487C124.818 79.1603 126.753 80.3634 129.23 80.5358C131.708 80.7082 133.79 79.7847 133.881 78.473Z" fill="#57B894"/>
<path d="M145.996 87.2707C136.147 82.7465 126.032 82.0426 115.65 85.1591L116.513 72.7568C126.616 70.4594 137.172 71.194 146.859 74.8684L145.996 87.2707Z" stroke="#3F3D56" stroke-width="2" stroke-miterlimit="10"/>
<path d="M141.953 84.4121C134.844 81.1468 127.543 80.6388 120.051 82.888L120.674 73.9368C127.965 72.2787 135.584 72.8089 142.576 75.4609L141.953 84.4121Z" stroke="#3F3D56" stroke-width="2" stroke-miterlimit="10"/>
<path d="M135.538 77.5276C135.629 76.216 133.695 75.013 131.217 74.8406C128.74 74.6682 126.657 75.5917 126.566 76.9033C126.475 78.2149 128.409 79.418 130.887 79.5904C133.364 79.7628 135.447 78.8393 135.538 77.5276Z" stroke="#3F3D56" stroke-width="2" stroke-miterlimit="10"/>
<path d="M109.754 56.6308C109.754 56.6308 90.3131 53.9712 76.4297 62.1073" stroke="#3F3D56" stroke-width="2" stroke-miterlimit="10"/>
<path d="M76.897 59.3732L77.402 59.533L76.6126 62.0192L79.1504 62.6247L79.0269 63.1397L75.9365 62.4014L76.897 59.3732Z" fill="#3F3D56"/>
</g>
<defs>
<clipPath id="clip0">
<rect width="290.704" height="211" fill="white"/>
</clipPath>
</defs>
</svg>
