<svg width="180" height="36" viewBox="0 0 180 36" fill="none" xmlns="http://www.w3.org/2000/svg">
<path d="M136.925 13.2926C137.094 13.0386 137.179 12.7846 137.179 12.4459C137.179 12.1072 137.094 11.8532 136.925 11.5992C136.587 11.0912 136.164 11.0912 135.402 11.0912H132.355V13.8852H134.979C135.656 13.8852 136.502 13.8852 136.925 13.2926Z" fill="white"/>
<path d="M154.781 15.6633H158.844L156.897 11.3453L154.781 15.6633Z" fill="white"/>
<path d="M154.951 0C147.842 2.62465 140.395 5.84196 132.609 9.39793H135.656C136.587 9.39793 137.602 9.39793 138.533 10.2446C138.956 10.5833 139.549 11.2606 139.549 12.6152C139.549 14.0546 138.702 15.1552 137.264 15.4939C138.025 16.7639 139.549 19.3885 140.056 20.2352H137.179C136.671 19.2192 134.979 16.0019 134.81 15.6632H132.44V20.2352H129.986V10.5833C114.161 17.9492 97.4894 26.6698 82.2567 35.1364C113.145 26.5005 136.671 22.6905 161.89 19.9812C161.551 19.9812 161.213 20.0659 160.874 20.0659L159.69 17.4412H153.935L152.75 20.0659H150.127L155.543 9.31327H158.505L163.583 19.7272C163.159 19.8119 162.736 19.8119 162.313 19.8965C168.068 19.3039 173.907 18.7112 180 18.2032C171.961 11.0913 163.836 5.2493 154.951 0ZM151.904 11.2606H147.673V20.1505H145.219V11.2606H141.072V9.39793H151.904V11.2606Z" fill="white"/>
<path d="M77.0945 8.97461H76.4175V9.65194H77.0945V8.97461ZM78.3639 8.97461H77.6869V9.65194H78.3639V8.97461ZM54.4147 8.97461H53.7377V9.65194H54.4147V8.97461ZM53.1453 8.97461H52.4683V9.65194H53.1453V8.97461ZM3.30042 10.1599H2.62341V10.8373H3.30042V10.1599ZM4.56982 10.1599H3.89281V10.8373H4.56982V10.1599ZM88.2652 13.3772H87.5882V14.0546H88.2652V13.3772ZM89.6192 13.3772H88.9422V14.0546H89.6192V13.3772ZM65.8392 16.6792L64.1467 20.0659H64.8237L65.2468 19.3039H67.1086L67.5317 20.0659H68.2087L66.5162 16.6792H65.8392ZM65.4161 18.7112C65.5007 18.5419 66.0085 17.5259 66.0085 17.5259V17.4412V17.5259C66.0085 17.5259 66.5162 18.5419 66.6008 18.7959H65.4161V18.7112ZM82.6798 10.1599H82.0028L81.6643 10.0753L81.5797 9.90594C81.5797 9.65194 81.8336 9.65194 81.9182 9.65194C82.2567 9.65194 82.3413 9.82127 82.3413 9.90594L82.5952 9.7366C82.5106 9.65194 82.426 9.48261 82.3413 9.48261C82.2567 9.31327 82.0028 9.31327 82.0028 9.31327C81.5797 9.31327 81.3258 9.56727 81.3258 9.90594L81.4104 10.1599H81.1566V10.4139H82.6798V10.1599ZM5.83921 16.5946C4.8237 16.5946 3.80818 17.1872 3.80818 18.4572C3.80818 19.2192 4.14669 19.6425 4.48519 19.8119C4.8237 20.0659 5.24683 20.1505 5.83921 20.1505C6.85472 20.1505 7.87024 19.6425 7.87024 18.3725C7.87024 17.3565 7.1086 16.5946 5.83921 16.5946ZM5.92384 19.6425C5.41608 19.6425 4.99295 19.4732 4.73907 19.2192C4.48519 18.9652 4.48519 18.6265 4.48519 18.4572C4.48519 17.6105 5.1622 17.2719 5.83921 17.2719C6.34697 17.2719 6.68547 17.3565 6.93935 17.6952C7.1086 17.8645 7.27786 18.2032 7.27786 18.5419C7.27786 18.7112 7.1086 19.6425 5.92384 19.6425ZM3.5543 17.6952C3.5543 17.2719 3.38505 17.0179 3.2158 16.9332C2.87729 16.6792 2.53879 16.6792 2.28491 16.6792H0V20.0659H0.592384V18.7959H2.03103L3.13117 20.0659H3.97743C3.97743 20.0659 2.87729 18.7959 2.79267 18.6265C3.2158 18.5419 3.5543 18.2032 3.5543 17.6952ZM0.67701 18.2032V17.1872H2.36953C2.53879 17.1872 2.79267 17.1872 2.87729 17.3565V17.7799L2.79267 18.0339C2.62341 18.2032 2.36953 18.2032 2.11566 18.2032H0.67701ZM2.11566 12.6999H6.93935V10.1599H6.34697V12.1073H2.03103C1.6079 12.1073 1.18477 12.1073 0.846262 11.6839C0.67701 11.4299 0.592384 11.1759 0.592384 10.9219C0.592384 10.7526 0.592384 10.5833 0.67701 10.4986H0.0846262C0 10.6679 0 10.8373 0 11.0066C0 11.6839 0.253879 12.0226 0.507757 12.2766C0.930889 12.6999 1.6079 12.6999 2.11566 12.6999ZM41.1283 9.31327H40.536V12.6999H41.1283V9.31327ZM97.1509 10.5833C96.7278 10.2446 96.22 10.2446 95.8815 10.2446H95.543V9.65194H94.9506V10.1599H94.6121C94.2736 10.1599 93.7659 10.1599 93.3427 10.4986C93.0889 10.6679 92.7504 11.0913 92.7504 11.7686V12.0226H89.5346V10.1599H88.9422V12.1073H85.0494V10.1599H84.457V12.1073H79.0409V10.1599H77.0099C77.0099 10.1599 76.6714 10.1599 76.4175 10.2446C75.9097 10.4139 75.7405 10.9219 75.7405 11.4299C75.7405 11.5993 75.7405 12.6999 77.0945 12.6999C77.433 12.6999 77.6869 12.6152 78.0254 12.4459C78.2793 12.2766 78.4485 11.9379 78.4485 11.9379V12.6999H97.7433V11.8533C97.6587 11.1759 97.3202 10.7526 97.1509 10.5833ZM78.4485 10.8373C78.4485 11.2606 78.3639 11.6839 78.11 11.8533C77.8561 12.0226 77.6023 12.1073 77.2638 12.1073C76.5867 12.1073 76.5021 11.5993 76.5021 11.4299C76.5021 11.1759 76.5867 10.9219 76.8406 10.8373C77.0099 10.7526 77.1791 10.7526 77.5176 10.7526H78.5331V10.8373H78.4485ZM94.866 12.1073H93.3427V11.7686C93.3427 11.3453 93.512 11.0913 93.6812 10.9219C93.9351 10.6679 94.2736 10.6679 94.6121 10.6679H94.9506V12.1073H94.866ZM97.0663 12.1073H95.543V10.6679H95.8815C96.22 10.6679 96.4739 10.6679 96.8124 10.9219C96.897 11.0066 97.0663 11.3453 97.1509 11.7686V12.1073H97.0663ZM9.56276 16.6792L7.87024 20.0659H8.54725L8.97038 19.3039H10.8322L11.2553 20.0659H11.8477L10.1551 16.6792H9.56276ZM9.22426 18.7112C9.30889 18.5419 9.81664 17.5259 9.81664 17.5259V17.4412V17.5259C9.81664 17.5259 10.3244 18.5419 10.409 18.7959H9.22426V18.7112ZM57.969 13.2079C58.0536 13.0386 58.1382 12.8692 58.1382 12.6999H70.409V9.31327H69.8166V12.1919H67.5317V11.9379C67.5317 11.1759 67.1932 10.8373 66.9393 10.6679C66.4316 10.1599 66.0085 10.1599 65.5853 10.1599H62.6234V9.31327H62.031V12.1919H58.0536V10.1599H57.4612V12.5306C57.4612 12.7846 57.4612 13.0386 57.1227 13.1232C56.9535 13.2079 56.6996 13.2079 56.615 13.2079C56.4457 13.2079 56.2764 13.2079 56.1072 13.1232V13.7159C56.3611 13.8006 56.5303 13.8006 56.615 13.8006C57.1227 13.8006 57.7151 13.6312 57.969 13.2079ZM62.708 10.7526H65.67C66.0085 10.7526 66.2623 10.7526 66.6008 11.0066C66.6855 11.0913 66.9393 11.3453 66.9393 11.8533V12.1919H62.7927V10.7526H62.708ZM9.05501 13.7159C9.30889 13.8006 9.56276 13.8006 9.90127 13.8006C10.6629 13.8006 11.1707 13.6312 11.4245 13.2926C11.5092 13.1232 11.5938 12.9539 11.5938 12.6999H22.0028C22.0874 12.1919 22.0874 11.8533 22.0874 11.8533C22.0874 11.0913 21.7489 10.7526 21.4951 10.5833C21.1566 10.1599 20.6488 10.1599 20.3103 10.1599H16.8406V12.1073H15.4866V10.6679H14.8942V12.1073H11.5938V9.31327H10.9168V12.6999C10.9168 13.0386 10.4937 13.2926 9.81664 13.2926C9.30889 13.2926 8.97038 13.2079 8.7165 12.9539L8.54725 12.7846V12.6999L7.95487 12.9539L8.03949 13.0386C8.12412 13.2079 8.29337 13.5466 9.05501 13.7159ZM17.433 10.7526H20.3103C20.6488 10.7526 20.9027 10.7526 21.2412 11.0066C21.3258 11.0913 21.5797 11.3453 21.5797 11.8533V12.1919H17.6023V10.7526H17.433ZM9.90127 12.6152L9.22426 9.31327H8.54725L9.30889 12.6999L9.90127 12.6152ZM24.2877 9.31327H23.6953V12.6999H24.3724V9.31327H24.2877ZM95.7123 18.1185L95.6276 18.2032L95.543 18.1185L94.4429 16.6792H93.6812L95.3738 18.7959V20.1505H95.9661V18.8805L97.6587 16.7639H96.8124L95.7123 18.1185ZM72.2708 17.2719H73.5402V20.1505H74.1326V17.2719H75.402V16.6792H72.1862V17.2719H72.2708ZM78.8717 18.0339H76.5867V16.6792H75.9944V20.0659H76.5867V18.5419H78.8717V20.0659H79.5487V16.6792H78.9563V18.0339H78.8717ZM41.8054 18.9652V19.2192L41.6361 19.0499L39.4358 16.6792H38.9281V20.0659H39.5205V17.8645C39.5205 17.8645 39.5205 17.6952 39.5205 17.5259L39.6051 17.6105L41.89 20.0659H42.4824V16.6792H41.89V18.9652H41.8054ZM48.9986 16.6792H46.9676V20.0659H47.5599V18.7959H49.0832C49.4217 18.7959 49.9295 18.7959 50.1834 18.3725C50.268 18.2032 50.3526 17.9492 50.3526 17.7799C50.3526 17.4412 50.268 17.1872 50.0141 17.0179C49.8448 16.7639 49.5063 16.6792 48.9986 16.6792ZM49.5063 18.1185C49.3371 18.2032 49.1678 18.2032 48.9986 18.2032H47.6446V17.1872H48.9986C49.2525 17.1872 49.5063 17.1872 49.6756 17.3565C49.7602 17.4412 49.7602 17.5259 49.7602 17.6952C49.7602 17.8645 49.6756 18.0339 49.5063 18.1185ZM44.0903 17.2719C44.2595 17.1872 44.598 17.1872 44.8519 17.1872C45.275 17.1872 45.5289 17.2719 45.7828 17.4412L45.952 17.6105L46.0367 17.6952L46.6291 17.4412L46.5444 17.3565C46.4598 17.1872 46.3752 17.1025 46.2059 17.0179C45.8674 16.7639 45.4443 16.6792 44.8519 16.6792C43.8364 16.6792 43.244 17.0179 43.244 17.6952C43.244 17.9492 43.3286 18.1185 43.4979 18.2879C43.7518 18.5419 44.0903 18.5419 44.8519 18.6265C45.5289 18.7112 45.952 18.7112 45.952 19.0499C45.952 19.3885 45.6135 19.6425 44.9365 19.6425C44.4288 19.6425 44.0903 19.5579 43.8364 19.3039L43.6671 19.1345V19.0499L43.0748 19.3039L43.1594 19.3885C43.244 19.5579 43.4979 19.8965 44.1749 20.0659C44.4288 20.1505 44.7673 20.1505 45.0212 20.1505C45.7828 20.1505 46.2059 19.9812 46.4598 19.6425C46.5444 19.4732 46.6291 19.3039 46.6291 19.0499C46.6291 18.4572 46.1213 18.2032 45.8674 18.1185L45.4443 18.0339L44.598 17.9492C44.3441 17.9492 44.1749 17.8645 44.0903 17.7799L44.0056 17.6105C43.8364 17.5259 43.921 17.3565 44.0903 17.2719ZM52.8068 16.5946C51.7913 16.5946 50.7757 17.1872 50.7757 18.4572C50.7757 19.2192 51.1142 19.6425 51.4528 19.8119C51.7913 20.0659 52.2144 20.1505 52.8068 20.1505C53.8223 20.1505 54.8378 19.6425 54.8378 18.3725C54.8378 17.3565 53.9915 16.5946 52.8068 16.5946ZM52.8068 19.6425C52.299 19.6425 51.8759 19.4732 51.622 19.2192C51.3681 18.9652 51.3681 18.6265 51.3681 18.4572C51.3681 17.6105 52.0451 17.2719 52.7221 17.2719C53.2299 17.2719 53.5684 17.3565 53.8223 17.6952C53.9915 17.8645 54.1608 18.2032 54.1608 18.5419C54.1608 18.7112 54.0762 19.6425 52.8068 19.6425ZM59.2384 17.2719H60.5078V20.1505H61.1001V17.2719H62.3695V16.6792H59.2384V17.2719ZM71.086 18.7112C71.086 18.9652 71.086 19.2192 70.7475 19.3885C70.5783 19.4732 70.3244 19.5579 70.0705 19.5579C69.5628 19.5579 69.3089 19.3885 69.2243 19.3885C68.9704 19.2192 68.9704 19.0499 68.9704 18.7112V16.6792H68.378V18.6265C68.378 18.9652 68.378 19.4732 68.8858 19.8119C69.2243 20.0659 69.5628 20.1505 70.0705 20.1505C70.5783 20.1505 70.9168 20.0659 71.2553 19.8965C71.763 19.5579 71.763 19.0499 71.763 18.7112V16.6792H71.086V18.7112ZM51.9605 11.4299C51.9605 12.2766 52.5529 12.6152 53.3992 12.6152C53.9069 12.6152 54.1608 12.4459 54.33 12.3613V12.5306C54.33 12.6999 54.33 12.9539 53.9915 13.0386C53.8223 13.1232 53.653 13.1232 53.4838 13.1232H50.6065C50.3526 13.1232 50.1834 13.1232 50.0987 13.0386C49.7602 12.9539 49.7602 12.6999 49.7602 12.5306V10.7526H49.0832V12.4459C49.0832 12.6999 49.0832 12.9539 49.2525 13.2079C49.5063 13.5466 50.0987 13.6312 50.5219 13.6312H53.4838C53.9069 13.6312 54.4147 13.5466 54.6685 13.2079C54.8378 12.9539 54.8378 12.6999 54.8378 12.4459V10.1599H53.3145C52.3836 10.1599 51.9605 10.6679 51.9605 11.4299ZM54.33 10.6679V11.3453C54.33 11.6839 53.9915 12.0226 53.4838 12.0226C52.976 12.0226 52.6375 11.7686 52.6375 11.3453C52.6375 10.8373 53.0606 10.6679 53.4838 10.6679H54.33ZM58.8152 17.6952C58.8152 17.2719 58.646 17.0179 58.4767 16.9332C58.2228 16.6792 57.7997 16.6792 57.5458 16.6792H55.2609V20.0659H55.8533V18.7959H57.292L58.3921 20.0659H59.2384C59.2384 20.0659 58.2228 18.7959 58.0536 18.6265C58.5614 18.5419 58.8152 18.2032 58.8152 17.6952ZM55.9379 18.2032V17.1872H57.6305C57.7997 17.1872 58.0536 17.1872 58.1382 17.3565L58.2229 17.6952L58.1382 17.9492C57.969 18.1185 57.7151 18.1185 57.4612 18.1185H55.9379V18.2032ZM33.7659 17.6952C33.7659 17.2719 33.5966 17.0179 33.4274 16.9332C33.1735 16.6792 32.7504 16.6792 32.4965 16.6792H30.2116V20.0659H30.804V18.7959H32.2426L33.3427 20.0659H34.189C34.189 20.0659 33.0889 18.7959 33.0042 18.6265C33.512 18.5419 33.7659 18.2032 33.7659 17.6952ZM30.8886 18.2032V17.1872H32.5811C32.7504 17.1872 33.0042 17.1872 33.0889 17.3565L33.1735 17.6952L33.0889 17.9492C32.9196 18.1185 32.6657 18.1185 32.4118 18.1185H30.8886V18.2032ZM26.6573 17.2719H27.9267V20.1505H28.519V17.2719H29.7884V16.6792H26.5726V17.2719H26.6573ZM25.134 19.4732H24.9647L24.6262 19.3039C24.7955 18.9652 24.8801 18.7959 24.9647 18.3725V18.2879H24.3724V18.3725L24.2877 18.7112L24.1185 18.9652L23.9492 18.7959L23.8646 18.7112L23.4415 18.2879C23.6107 18.2032 23.78 18.1185 23.8646 17.9492C23.9492 17.7799 24.0338 17.6105 24.0338 17.4412C24.0338 17.0179 23.78 16.6792 23.103 16.6792C22.5106 16.6792 22.1721 17.0179 22.1721 17.5259C22.1721 17.7799 22.3413 17.9492 22.426 18.1185C22.0028 18.2879 21.6643 18.4572 21.6643 19.0499C21.6643 19.3039 21.7489 19.5579 22.0028 19.7272C22.2567 19.8965 22.5106 19.9812 22.9337 19.9812C23.5261 19.9812 23.8646 19.8119 24.1185 19.6425C24.3724 19.8119 24.5416 19.8965 24.7109 19.8965L25.0494 19.8119V19.7272V19.4732H25.134ZM23.1876 17.3565C23.3568 17.3565 23.5261 17.4412 23.5261 17.6952C23.5261 17.9492 23.3568 18.0339 23.103 18.1185C23.0183 18.0339 22.8491 17.8645 22.8491 17.6952C22.9337 17.4412 23.0183 17.3565 23.1876 17.3565ZM23.103 19.6425C22.6798 19.6425 22.426 19.4732 22.426 19.1345C22.426 18.8805 22.6798 18.7959 22.9337 18.7112L23.2722 19.0499C23.2722 19.0499 23.6107 19.3885 23.78 19.4732C23.5261 19.5579 23.3568 19.6425 23.103 19.6425ZM89.1114 20.0659H89.7038V16.6792H89.1114V20.0659ZM15.2327 17.0179C14.8096 16.6792 14.3018 16.6792 13.9633 16.6792H12.2708V20.0659H13.6248C14.1326 20.0659 14.8096 20.0659 15.3173 19.5579C15.4866 19.3885 15.8251 18.9652 15.8251 18.2879C15.7405 17.6105 15.402 17.2719 15.2327 17.0179ZM14.8942 19.1345C14.5557 19.5579 14.1326 19.5579 13.7095 19.5579H12.8632V17.2719H13.8787C14.2172 17.2719 14.4711 17.2719 14.8096 17.5259C14.8942 17.6105 15.1481 17.8645 15.1481 18.3725C15.1481 18.5419 15.0635 18.8805 14.8942 19.1345ZM17.2638 17.2719C17.433 17.1872 17.7715 17.1872 18.0254 17.1872C18.4485 17.1872 18.7024 17.2719 18.9563 17.4412L19.1255 17.6105L19.2102 17.6952L19.8025 17.4412L19.7179 17.3565C19.6333 17.1872 19.5487 17.1025 19.3794 17.0179C19.0409 16.7639 18.6178 16.6792 18.0254 16.6792C17.0099 16.6792 16.4175 17.0179 16.4175 17.6952C16.4175 17.9492 16.5021 18.1185 16.6714 18.2879C16.9252 18.5419 17.2638 18.5419 18.0254 18.6265C18.7024 18.7112 19.1255 18.7112 19.1255 19.0499C19.1255 19.3885 18.787 19.6425 18.11 19.6425C17.6023 19.6425 17.2638 19.5579 17.0099 19.3039L16.8406 19.1345V19.0499L16.079 19.3039L16.1636 19.3885C16.2482 19.5579 16.5021 19.8965 17.1791 20.0659C17.433 20.1505 17.7715 20.1505 18.0254 20.1505C18.7024 20.1505 19.2102 19.9812 19.464 19.6425C19.5487 19.4732 19.6333 19.3039 19.6333 19.0499C19.6333 18.4572 19.1255 18.2032 18.8716 18.1185L18.4485 18.0339L17.6023 17.9492C17.3484 17.9492 17.1791 17.8645 17.0945 17.7799L17.0099 17.6105C17.0099 17.5259 17.0099 17.3565 17.2638 17.2719ZM90.2116 17.2719H91.481V20.1505H92.0733V17.2719H93.3427V16.6792H90.1269V17.2719H90.2116ZM36.3047 16.6792L34.6121 20.0659H35.2891L35.7123 19.3039H37.5741L37.9972 20.0659H38.6742L36.9817 16.6792H36.3047ZM35.8815 18.7112C35.9662 18.5419 36.4739 17.5259 36.4739 17.5259V17.4412V17.5259C36.4739 17.5259 36.9817 18.5419 37.0663 18.7959H35.8815V18.7112ZM82.0874 16.5946C81.0719 16.5946 80.0564 17.1872 80.0564 18.4572C80.0564 19.2192 80.3949 19.6425 80.7334 19.8119C81.0719 20.0659 81.4951 20.1505 82.0874 20.1505C83.103 20.1505 84.1185 19.6425 84.1185 18.3725C84.1185 17.3565 83.3568 16.5946 82.0874 16.5946ZM82.1721 19.6425C81.6643 19.6425 81.2412 19.4732 80.9873 19.2192C80.7334 18.9652 80.7334 18.6265 80.7334 18.4572C80.7334 17.6105 81.4104 17.2719 82.0874 17.2719C82.5952 17.2719 82.9337 17.3565 83.1876 17.6952C83.4415 17.8645 83.5261 18.2032 83.5261 18.5419C83.5261 18.7112 83.3568 19.6425 82.1721 19.6425ZM38.0818 12.1073H35.2891C35.4584 11.9379 35.543 11.6839 35.543 11.3453C35.543 10.5833 34.9506 10.0753 34.1044 10.0753H32.5811V12.0226H28.7729V10.1599H27.2496C26.4034 10.1599 25.811 10.6679 25.811 11.4299C25.811 12.2766 26.488 12.6999 27.165 12.6999H28.0959C28.0959 12.8692 28.0959 13.0386 27.842 13.2079C27.6728 13.2926 27.5035 13.2926 27.3343 13.2926H26.2341V13.8006H27.3343C27.7574 13.8006 28.2652 13.7159 28.519 13.3772C28.7729 13.2079 28.7729 12.9539 28.7729 12.6999H38.6742V9.31327H38.0818V12.1073ZM28.1805 12.1073H27.3343C26.8265 12.1073 26.488 11.7686 26.488 11.3453C26.488 10.8373 26.9111 10.6679 27.3343 10.6679H28.1805V12.1073ZM34.0197 12.1073H33.1735V10.6679H34.0197C34.4429 10.6679 34.866 10.8373 34.866 11.3453C34.866 11.8533 34.5275 12.1073 34.0197 12.1073ZM88.1805 17.6952C88.1805 17.2719 88.0113 17.0179 87.842 16.9332C87.5035 16.6792 87.165 16.6792 86.9111 16.6792H84.6262V20.0659H85.2186V18.7959H86.6573L87.7574 20.0659H88.6037C88.6037 20.0659 87.5882 18.7959 87.4189 18.6265C87.9267 18.5419 88.1805 18.2032 88.1805 17.6952ZM85.3032 18.2032V17.1872H86.9958C87.165 17.1872 87.4189 17.1872 87.5035 17.3565L87.5882 17.6952L87.5035 17.9492C87.3343 18.1185 87.0804 18.1185 86.8265 18.1185H85.3032V18.2032ZM72.8632 9.31327H72.2708V12.6999H72.8632V9.31327ZM44.4288 12.6152C44.9365 12.6152 45.1904 12.4459 45.3597 12.3613V12.6999C45.3597 12.8692 45.3597 13.1232 45.0212 13.2079C44.8519 13.2926 44.6827 13.2926 44.5134 13.2926H43.4979V13.8006H44.598C45.0212 13.8006 45.5289 13.7159 45.7828 13.3772C45.952 13.1232 45.952 12.8692 45.952 12.6152V10.1599H44.4288C43.4133 10.1599 42.9901 10.6679 42.9901 11.4299C43.0748 12.2766 43.6671 12.6152 44.4288 12.6152ZM44.5134 10.6679H45.3597V11.3453C45.3597 11.6839 45.0212 12.0226 44.5134 12.0226C44.0056 12.0226 43.6671 11.7686 43.6671 11.3453C43.7518 10.9219 44.1749 10.6679 44.5134 10.6679Z" fill="white"/>
</svg>
