<svg width="30" height="30" viewBox="0 0 30 30" fill="none" xmlns="http://www.w3.org/2000/svg">
<path fill-rule="evenodd" clip-rule="evenodd" d="M9.375 15C9.375 11.8934 11.8934 9.375 15 9.375C18.1066 9.375 20.625 11.8934 20.625 15C20.625 18.1066 18.1066 20.625 15 20.625C11.8934 20.625 9.375 18.1066 9.375 15ZM15 8.125C11.203 8.125 8.125 11.203 8.125 15C8.125 18.797 11.203 21.875 15 21.875C18.797 21.875 21.875 18.797 21.875 15C21.875 11.203 18.797 8.125 15 8.125ZM12.7538 12.8664C12.4384 12.7262 12.0691 12.8682 11.9289 13.1837C11.7887 13.4991 11.9307 13.8684 12.2462 14.0086L14.6578 15.0805L14.3766 19.018C14.352 19.3623 14.6112 19.6613 14.9555 19.6859C15.2998 19.7105 15.5988 19.4513 15.6234 19.107L15.9359 14.732C15.9547 14.4695 15.8069 14.2233 15.5663 14.1164L12.7538 12.8664Z" fill="#787878"/>
</svg>
