<svg width="48" height="48" viewBox="0 0 48 48" fill="none" xmlns="http://www.w3.org/2000/svg">
<path fill-rule="evenodd" clip-rule="evenodd" d="M15 24C15 19.0294 19.0294 15 24 15C28.9706 15 33 19.0294 33 24C33 28.9706 28.9706 33 24 33C19.0294 33 15 28.9706 15 24ZM24 13C17.9249 13 13 17.9249 13 24C13 30.0751 17.9249 35 24 35C30.0751 35 35 30.0751 35 24C35 17.9249 30.0751 13 24 13ZM20.4061 20.5862C19.9015 20.3619 19.3105 20.5892 19.0862 21.0939C18.8619 21.5985 19.0892 22.1895 19.5939 22.4138L23.4525 24.1288L23.0025 30.4288C22.9632 30.9796 23.3779 31.4581 23.9288 31.4975C24.4796 31.5368 24.9581 31.1221 24.9975 30.5712L25.4975 23.5712C25.5275 23.1511 25.291 22.7572 24.9061 22.5862L20.4061 20.5862Z" fill="#484848"/>
</svg>
