<svg width="30" height="30" viewBox="0 0 30 30" fill="none" xmlns="http://www.w3.org/2000/svg">
<path fill-rule="evenodd" clip-rule="evenodd" d="M6.25 9.375C6.25 9.02982 6.52982 8.75 6.875 8.75H18.3523H21.0795C21.2883 8.75 21.4833 8.85425 21.5993 9.02787L23.6447 12.0904C23.7134 12.1931 23.75 12.3139 23.75 12.4375V18.125C23.75 18.4702 23.4702 18.75 23.125 18.75H22.2895C22.4245 19.0341 22.5 19.352 22.5 19.6875C22.5 20.8956 21.5206 21.875 20.3125 21.875C19.1044 21.875 18.125 20.8956 18.125 19.6875C18.125 19.352 18.2005 19.0341 18.3355 18.75H11.6645C11.7995 19.0341 11.875 19.352 11.875 19.6875C11.875 20.8956 10.8956 21.875 9.6875 21.875C8.47938 21.875 7.5 20.8956 7.5 19.6875C7.5 19.352 7.57553 19.0341 7.71051 18.75H6.875C6.52982 18.75 6.25 18.4702 6.25 18.125V9.375ZM20.3125 18.75C19.7947 18.75 19.375 19.1697 19.375 19.6875C19.375 20.2053 19.7947 20.625 20.3125 20.625C20.8303 20.625 21.25 20.2053 21.25 19.6875C21.25 19.1697 20.8303 18.75 20.3125 18.75ZM20.3125 17.5H22.5V12.627L20.7454 10H18.9773V13.75V17.5H20.3125ZM18.9773 17.5H9.6875H7.5V10H18.9773V13.75V17.5ZM8.75 19.6875C8.75 19.1697 9.16973 18.75 9.6875 18.75C10.2053 18.75 10.625 19.1697 10.625 19.6875C10.625 20.2053 10.2053 20.625 9.6875 20.625C9.16973 20.625 8.75 20.2053 8.75 19.6875Z" fill="#787878"/>
</svg>
