<svg width="48" height="48" viewBox="0 0 48 48" fill="none" xmlns="http://www.w3.org/2000/svg">
<path fill-rule="evenodd" clip-rule="evenodd" d="M10 15C10 14.4477 10.4477 14 11 14H29.3636H33.7273C34.0613 14 34.3733 14.1668 34.5588 14.4446L37.8316 19.3446C37.9414 19.509 38 19.7023 38 19.9V29C38 29.5523 37.5523 30 37 30H35.6632C35.8792 30.4546 36 30.9632 36 31.5C36 33.433 34.433 35 32.5 35C30.567 35 29 33.433 29 31.5C29 30.9632 29.1208 30.4546 29.3368 30H18.6632C18.8792 30.4546 19 30.9632 19 31.5C19 33.433 17.433 35 15.5 35C13.567 35 12 33.433 12 31.5C12 30.9632 12.1208 30.4546 12.3368 30H11C10.4477 30 10 29.5523 10 29V15ZM32.5 30C31.6716 30 31 30.6716 31 31.5C31 32.3284 31.6716 33 32.5 33C33.3284 33 34 32.3284 34 31.5C34 30.6716 33.3284 30 32.5 30ZM32.5 28H36V20.2032L33.1926 16H30.3636V22V28H32.5ZM30.3636 28H15.5H12V16H30.3636V22V28ZM14 31.5C14 30.6716 14.6716 30 15.5 30C16.3284 30 17 30.6716 17 31.5C17 32.3284 16.3284 33 15.5 33C14.6716 33 14 32.3284 14 31.5Z" fill="#484848"/>
</svg>
