<svg width="30" height="30" viewBox="0 0 30 30" fill="none" xmlns="http://www.w3.org/2000/svg">
<path fill-rule="evenodd" clip-rule="evenodd" d="M11.25 11.875C11.25 10.8395 12.0895 10 13.125 10C14.1605 10 15 10.8395 15 11.875C15 12.9105 14.1605 13.75 13.125 13.75C12.0895 13.75 11.25 12.9105 11.25 11.875ZM13.125 8.75C11.3991 8.75 10 10.1491 10 11.875C10 13.6009 11.3991 15 13.125 15C14.8509 15 16.25 13.6009 16.25 11.875C16.25 10.1491 14.8509 8.75 13.125 8.75ZM10.625 16.25C8.90482 16.25 7.5 17.6548 7.5 19.375V20.625C7.5 20.9702 7.77982 21.25 8.125 21.25C8.47018 21.25 8.75 20.9702 8.75 20.625V19.375C8.75 18.3452 9.59518 17.5 10.625 17.5H15.625C16.6548 17.5 17.5 18.3452 17.5 19.375V20.625C17.5 20.9702 17.7798 21.25 18.125 21.25C18.4702 21.25 18.75 20.9702 18.75 20.625V19.375C18.75 17.6548 17.3452 16.25 15.625 16.25H10.625ZM17.5 10.625C17.5 10.2798 17.7798 10 18.125 10C19.5057 10 20.625 11.1193 20.625 12.5C20.625 13.8807 19.5057 15 18.125 15C17.7798 15 17.5 14.7202 17.5 14.375C17.5 14.0298 17.7798 13.75 18.125 13.75C18.8154 13.75 19.375 13.1904 19.375 12.5C19.375 11.8096 18.8154 11.25 18.125 11.25C17.7798 11.25 17.5 10.9702 17.5 10.625ZM20.1673 16.3353C19.8347 16.2429 19.4902 16.4376 19.3978 16.7702C19.3054 17.1028 19.5001 17.4473 19.8327 17.5397C20.6895 17.7777 21.25 18.5331 21.25 19.375V20.625C21.25 20.9702 21.5298 21.25 21.875 21.25C22.2202 21.25 22.5 20.9702 22.5 20.625V19.375C22.5 17.9669 21.5605 16.7223 20.1673 16.3353Z" fill="#787878"/>
</svg>
