<svg width="48" height="48" viewBox="0 0 48 48" fill="none" xmlns="http://www.w3.org/2000/svg">
<path fill-rule="evenodd" clip-rule="evenodd" d="M21 19C21 17.3431 22.3431 16 24 16C25.6569 16 27 17.3431 27 19C27 20.6569 25.6569 22 24 22C22.3431 22 21 20.6569 21 19ZM24 14C21.2386 14 19 16.2386 19 19C19 21.7614 21.2386 24 24 24C26.7614 24 29 21.7614 29 19C29 16.2386 26.7614 14 24 14ZM20 26C17.2477 26 15 28.2477 15 31V33C15 33.5523 15.4477 34 16 34C16.5523 34 17 33.5523 17 33V31C17 29.3523 18.3523 28 20 28H28C29.6477 28 31 29.3523 31 31V33C31 33.5523 31.4477 34 32 34C32.5523 34 33 33.5523 33 33V31C33 28.2477 30.7523 26 28 26H20Z" fill="#484848"/>
</svg>
